<mxfile host="app.diagrams.net" modified="2023-11-14T18:04:18.261Z" agent="Mozilla/5.0 (Windows NT 10.0; Win64; x64) AppleWebKit/537.36 (KHTML, like Gecko) Chrome/119.0.0.0 Safari/537.36" version="22.1.1" etag="ZoB0tZFeXM-1wpnZvf74" type="device">
  <diagram id="6n1j9PqHS3YFMnc8bc9q" name="Page-1">
    <mxGraphModel dx="932" dy="1017" grid="1" gridSize="10" guides="1" tooltips="1" connect="1" arrows="1" fold="1" page="1" pageScale="1" pageWidth="850" pageHeight="1100" math="0" shadow="0">
      <root>
        <mxCell id="0" />
        <mxCell id="1" parent="0" />
        <mxCell id="RmB8I1O6AhFz0H0aJWPY-1" value="Card" style="swimlane;fontStyle=1;align=center;verticalAlign=top;childLayout=stackLayout;horizontal=1;startSize=26;horizontalStack=0;resizeParent=1;resizeParentMax=0;resizeLast=0;collapsible=1;marginBottom=0;whiteSpace=wrap;html=1;" parent="1" vertex="1">
          <mxGeometry x="130" y="990" width="300" height="210" as="geometry" />
        </mxCell>
        <mxCell id="RmB8I1O6AhFz0H0aJWPY-2" value="&lt;u&gt;- val: Values&lt;/u&gt;&lt;br&gt;&lt;u&gt;- colour: Colours&lt;/u&gt;&lt;br&gt;&lt;u&gt;- icon: ImageIcon&lt;/u&gt;" style="text;strokeColor=none;fillColor=none;align=left;verticalAlign=top;spacingLeft=4;spacingRight=4;overflow=hidden;rotatable=0;points=[[0,0.5],[1,0.5]];portConstraint=eastwest;whiteSpace=wrap;html=1;" parent="RmB8I1O6AhFz0H0aJWPY-1" vertex="1">
          <mxGeometry y="26" width="300" height="54" as="geometry" />
        </mxCell>
        <mxCell id="RmB8I1O6AhFz0H0aJWPY-3" value="" style="line;strokeWidth=1;fillColor=none;align=left;verticalAlign=middle;spacingTop=-1;spacingLeft=3;spacingRight=3;rotatable=0;labelPosition=right;points=[];portConstraint=eastwest;strokeColor=inherit;" parent="RmB8I1O6AhFz0H0aJWPY-1" vertex="1">
          <mxGeometry y="80" width="300" height="8" as="geometry" />
        </mxCell>
        <mxCell id="RmB8I1O6AhFz0H0aJWPY-4" value="+ Card(val: Values, col: Colours, icon: ImageIcon)&lt;br&gt;+ getColour(): Colours&lt;br&gt;+ getVal(): Values&lt;br&gt;+ getIcon(): ImageIcon&lt;br&gt;+ isNumbered(): boolean&lt;br&gt;+ isSpecial(): boolean&lt;br&gt;+ isWild(): boolean&lt;br&gt;+ toString(): String" style="text;strokeColor=none;fillColor=none;align=left;verticalAlign=top;spacingLeft=4;spacingRight=4;overflow=hidden;rotatable=0;points=[[0,0.5],[1,0.5]];portConstraint=eastwest;whiteSpace=wrap;html=1;" parent="RmB8I1O6AhFz0H0aJWPY-1" vertex="1">
          <mxGeometry y="88" width="300" height="122" as="geometry" />
        </mxCell>
        <mxCell id="RmB8I1O6AhFz0H0aJWPY-13" value="&lt;p style=&quot;margin:0px;margin-top:4px;text-align:center;&quot;&gt;&amp;lt;&amp;lt;enumeration&amp;gt;&amp;gt;&lt;br&gt;&lt;b&gt;Values&lt;/b&gt;&lt;/p&gt;&lt;hr&gt;&lt;p style=&quot;margin:0px;margin-left:8px;text-align:left;&quot;&gt;ONE&lt;/p&gt;&lt;p style=&quot;margin:0px;margin-left:8px;text-align:left;&quot;&gt;TWO&lt;/p&gt;&lt;p style=&quot;margin:0px;margin-left:8px;text-align:left;&quot;&gt;THREE&lt;/p&gt;&lt;p style=&quot;margin:0px;margin-left:8px;text-align:left;&quot;&gt;FOUR&lt;/p&gt;&lt;p style=&quot;margin:0px;margin-left:8px;text-align:left;&quot;&gt;FIVE&lt;/p&gt;&lt;p style=&quot;margin:0px;margin-left:8px;text-align:left;&quot;&gt;SIX&lt;/p&gt;&lt;p style=&quot;margin:0px;margin-left:8px;text-align:left;&quot;&gt;SEVEN&lt;/p&gt;&lt;p style=&quot;margin:0px;margin-left:8px;text-align:left;&quot;&gt;EIGHT&lt;/p&gt;&lt;p style=&quot;margin:0px;margin-left:8px;text-align:left;&quot;&gt;NINE&lt;/p&gt;&lt;p style=&quot;margin:0px;margin-left:8px;text-align:left;&quot;&gt;WILD_PICK_COLOUR&lt;/p&gt;&lt;p style=&quot;margin:0px;margin-left:8px;text-align:left;&quot;&gt;WILD_DRAW_TWO&lt;/p&gt;&lt;p style=&quot;margin:0px;margin-left:8px;text-align:left;&quot;&gt;REVERSE&lt;/p&gt;&lt;p style=&quot;margin:0px;margin-left:8px;text-align:left;&quot;&gt;SKIP&lt;/p&gt;&lt;p style=&quot;margin:0px;margin-left:8px;text-align:left;&quot;&gt;DRAW_ONE&lt;/p&gt;" style="shape=rect;html=1;overflow=fill;whiteSpace=wrap;" parent="1" vertex="1">
          <mxGeometry x="300" y="1380" width="200" height="260" as="geometry" />
        </mxCell>
        <mxCell id="RmB8I1O6AhFz0H0aJWPY-14" value="&lt;p style=&quot;margin:0px;margin-top:4px;text-align:center;&quot;&gt;&amp;lt;&amp;lt;enumeration&amp;gt;&amp;gt;&lt;br&gt;&lt;b&gt;Colours&lt;/b&gt;&lt;/p&gt;&lt;hr&gt;&lt;p style=&quot;margin:0px;margin-left:8px;text-align:left;&quot;&gt;RED&lt;br&gt;BLUE&lt;/p&gt;&lt;p style=&quot;margin:0px;margin-left:8px;text-align:left;&quot;&gt;GREEN&lt;/p&gt;&lt;p style=&quot;margin:0px;margin-left:8px;text-align:left;&quot;&gt;YELLOW&lt;/p&gt;&lt;p style=&quot;margin:0px;margin-left:8px;text-align:left;&quot;&gt;WILD&lt;/p&gt;" style="shape=rect;html=1;overflow=fill;whiteSpace=wrap;" parent="1" vertex="1">
          <mxGeometry x="60" y="1380" width="200" height="150" as="geometry" />
        </mxCell>
        <mxCell id="RmB8I1O6AhFz0H0aJWPY-15" value="Hand" style="swimlane;fontStyle=1;align=center;verticalAlign=top;childLayout=stackLayout;horizontal=1;startSize=26;horizontalStack=0;resizeParent=1;resizeParentMax=0;resizeLast=0;collapsible=1;marginBottom=0;whiteSpace=wrap;html=1;" parent="1" vertex="1">
          <mxGeometry x="80" y="450" width="300" height="210" as="geometry" />
        </mxCell>
        <mxCell id="RmB8I1O6AhFz0H0aJWPY-16" value="- hand: ArrayList&amp;lt;Card&amp;gt;" style="text;strokeColor=none;fillColor=none;align=left;verticalAlign=top;spacingLeft=4;spacingRight=4;overflow=hidden;rotatable=0;points=[[0,0.5],[1,0.5]];portConstraint=eastwest;whiteSpace=wrap;html=1;" parent="RmB8I1O6AhFz0H0aJWPY-15" vertex="1">
          <mxGeometry y="26" width="300" height="26" as="geometry" />
        </mxCell>
        <mxCell id="RmB8I1O6AhFz0H0aJWPY-17" value="" style="line;strokeWidth=1;fillColor=none;align=left;verticalAlign=middle;spacingTop=-1;spacingLeft=3;spacingRight=3;rotatable=0;labelPosition=right;points=[];portConstraint=eastwest;strokeColor=inherit;" parent="RmB8I1O6AhFz0H0aJWPY-15" vertex="1">
          <mxGeometry y="52" width="300" height="8" as="geometry" />
        </mxCell>
        <mxCell id="RmB8I1O6AhFz0H0aJWPY-18" value="+ Hand()&lt;br&gt;+ getHand(): ArrayList&amp;lt;Card&amp;gt;&lt;br style=&quot;border-color: var(--border-color);&quot;&gt;+ addCard(card:&amp;nbsp;Card): void&lt;br style=&quot;border-color: var(--border-color);&quot;&gt;+ removeCard(card:&amp;nbsp;Card): bool&lt;br style=&quot;border-color: var(--border-color);&quot;&gt;+ getHand(): ArrayList&amp;lt;Card&amp;gt;&lt;br style=&quot;border-color: var(--border-color);&quot;&gt;+ isHandEmpty(): bool&lt;br&gt;+ handSize(): int&lt;br&gt;+ getCard(index: int): Card" style="text;strokeColor=none;fillColor=none;align=left;verticalAlign=top;spacingLeft=4;spacingRight=4;overflow=hidden;rotatable=0;points=[[0,0.5],[1,0.5]];portConstraint=eastwest;whiteSpace=wrap;html=1;" parent="RmB8I1O6AhFz0H0aJWPY-15" vertex="1">
          <mxGeometry y="60" width="300" height="150" as="geometry" />
        </mxCell>
        <mxCell id="RmB8I1O6AhFz0H0aJWPY-19" value="Player" style="swimlane;fontStyle=1;align=center;verticalAlign=top;childLayout=stackLayout;horizontal=1;startSize=26;horizontalStack=0;resizeParent=1;resizeParentMax=0;resizeLast=0;collapsible=1;marginBottom=0;whiteSpace=wrap;html=1;" parent="1" vertex="1">
          <mxGeometry x="160" y="40" width="240" height="300" as="geometry" />
        </mxCell>
        <mxCell id="RmB8I1O6AhFz0H0aJWPY-20" value="- myHand: Hand&lt;br&gt;- points: int&lt;br&gt;- name: String" style="text;strokeColor=none;fillColor=none;align=left;verticalAlign=top;spacingLeft=4;spacingRight=4;overflow=hidden;rotatable=0;points=[[0,0.5],[1,0.5]];portConstraint=eastwest;whiteSpace=wrap;html=1;" parent="RmB8I1O6AhFz0H0aJWPY-19" vertex="1">
          <mxGeometry y="26" width="240" height="74" as="geometry" />
        </mxCell>
        <mxCell id="RmB8I1O6AhFz0H0aJWPY-21" value="" style="line;strokeWidth=1;fillColor=none;align=left;verticalAlign=middle;spacingTop=-1;spacingLeft=3;spacingRight=3;rotatable=0;labelPosition=right;points=[];portConstraint=eastwest;strokeColor=inherit;" parent="RmB8I1O6AhFz0H0aJWPY-19" vertex="1">
          <mxGeometry y="100" width="240" height="8" as="geometry" />
        </mxCell>
        <mxCell id="RmB8I1O6AhFz0H0aJWPY-22" value="+ Player(name: String)&lt;br&gt;+ drawCard(pile : CardPile): void&lt;br&gt;+ showHand(): void&lt;br&gt;+ addPoints(points: int): void&lt;br&gt;+ getPoints(): int&lt;br style=&quot;border-color: var(--border-color);&quot;&gt;+ getName(): String&lt;br&gt;+ getHand(): Hand&lt;br&gt;+ callUno(): boolean&lt;br&gt;+ isHandEmpty() : boolean&lt;br&gt;+ pointsInHand() : int&lt;br&gt;+ clearHand(): void&lt;br&gt;" style="text;strokeColor=none;fillColor=none;align=left;verticalAlign=top;spacingLeft=4;spacingRight=4;overflow=hidden;rotatable=0;points=[[0,0.5],[1,0.5]];portConstraint=eastwest;whiteSpace=wrap;html=1;" parent="RmB8I1O6AhFz0H0aJWPY-19" vertex="1">
          <mxGeometry y="108" width="240" height="192" as="geometry" />
        </mxCell>
        <mxCell id="RmB8I1O6AhFz0H0aJWPY-36" value="UNOModel" style="swimlane;fontStyle=1;align=center;verticalAlign=top;childLayout=stackLayout;horizontal=1;startSize=26;horizontalStack=0;resizeParent=1;resizeParentMax=0;resizeLast=0;collapsible=1;marginBottom=0;whiteSpace=wrap;html=1;" parent="1" vertex="1">
          <mxGeometry x="790" y="470" width="370" height="680" as="geometry" />
        </mxCell>
        <mxCell id="RmB8I1O6AhFz0H0aJWPY-37" value="- views: ArrayList&amp;lt;UNOModelView&amp;gt;&lt;br&gt;- players: ArrayList&amp;lt;Player&amp;gt;&lt;br&gt;- drawPile: CardPile&lt;br&gt;- discardPile: CardPile&lt;br&gt;- turn: Player&lt;br&gt;- lastCardPlayed: Card&lt;br&gt;- direction: boolean&lt;br&gt;- random: Random&lt;br&gt;- wildColour: Colours&lt;br&gt;- round: int&lt;br&gt;- controller: UNOController" style="text;strokeColor=none;fillColor=none;align=left;verticalAlign=top;spacingLeft=4;spacingRight=4;overflow=hidden;rotatable=0;points=[[0,0.5],[1,0.5]];portConstraint=eastwest;whiteSpace=wrap;html=1;" parent="RmB8I1O6AhFz0H0aJWPY-36" vertex="1">
          <mxGeometry y="26" width="370" height="184" as="geometry" />
        </mxCell>
        <mxCell id="RmB8I1O6AhFz0H0aJWPY-38" value="" style="line;strokeWidth=1;fillColor=none;align=left;verticalAlign=middle;spacingTop=-1;spacingLeft=3;spacingRight=3;rotatable=0;labelPosition=right;points=[];portConstraint=eastwest;strokeColor=inherit;" parent="RmB8I1O6AhFz0H0aJWPY-36" vertex="1">
          <mxGeometry y="210" width="370" height="8" as="geometry" />
        </mxCell>
        <mxCell id="RmB8I1O6AhFz0H0aJWPY-39" value="+ UNOModel()&lt;br&gt;+ addUNOView(view: UNOModelView): void&lt;br&gt;+ removeUNOView(view: UNOModelView): void&lt;br&gt;- addPlayer(name: String): void&lt;br&gt;- gameWinner(): void&lt;br&gt;- roundWinner(): void&lt;br&gt;+ getPlayersPointsString(): String&lt;br&gt;- start(): void&lt;br&gt;- nextTurn(): void&lt;br&gt;- nextRound(): void&lt;br&gt;- playCard(card: Card): void&lt;br&gt;-&amp;nbsp; isValidCard(card: Card): boolean&lt;br&gt;- playNumbered(card: Card): void&lt;br&gt;- playSpecial(card: Card): void&lt;br&gt;- playWild(card: Card): void&lt;br&gt;+ getPlayersByClockwise(): ArrayList&amp;lt;Player&amp;gt;&lt;br&gt;+ getDirection(): bool&lt;br&gt;+ getNumPlayers(): int&lt;br&gt;+ getTurn(): Player&lt;br&gt;+ getWildColour(): Colours&lt;br&gt;+ getRoundPoints(): int&lt;br&gt;+ getRound(): int&lt;br&gt;+ drawCard(Player): void&lt;br&gt;+ challenge(); void&lt;br&gt;+ hasPlayableCard(): bool&lt;br&gt;+ checkDrawPile(): bool&lt;br&gt;+ playerDrawCard(curTurn: Player): Card&lt;br&gt;+ playerPlayCard(card: Card): void&lt;br&gt;+ getController(): UNOController" style="text;strokeColor=none;fillColor=none;align=left;verticalAlign=top;spacingLeft=4;spacingRight=4;overflow=hidden;rotatable=0;points=[[0,0.5],[1,0.5]];portConstraint=eastwest;whiteSpace=wrap;html=1;" parent="RmB8I1O6AhFz0H0aJWPY-36" vertex="1">
          <mxGeometry y="218" width="370" height="462" as="geometry" />
        </mxCell>
        <mxCell id="RmB8I1O6AhFz0H0aJWPY-53" value="" style="endArrow=diamondThin;endFill=1;endSize=24;html=1;rounded=0;entryX=0.883;entryY=1.007;entryDx=0;entryDy=0;entryPerimeter=0;exitX=0.5;exitY=0;exitDx=0;exitDy=0;" parent="1" source="RmB8I1O6AhFz0H0aJWPY-13" target="RmB8I1O6AhFz0H0aJWPY-4" edge="1">
          <mxGeometry width="160" relative="1" as="geometry">
            <mxPoint x="480" y="1200" as="sourcePoint" />
            <mxPoint x="640" y="1200" as="targetPoint" />
          </mxGeometry>
        </mxCell>
        <mxCell id="RmB8I1O6AhFz0H0aJWPY-54" value="" style="endArrow=diamondThin;endFill=1;endSize=24;html=1;rounded=0;entryX=0.166;entryY=1.032;entryDx=0;entryDy=0;entryPerimeter=0;exitX=0.609;exitY=-0.027;exitDx=0;exitDy=0;exitPerimeter=0;" parent="1" source="RmB8I1O6AhFz0H0aJWPY-14" target="RmB8I1O6AhFz0H0aJWPY-4" edge="1">
          <mxGeometry width="160" relative="1" as="geometry">
            <mxPoint x="380" y="1250" as="sourcePoint" />
            <mxPoint x="362" y="1201" as="targetPoint" />
          </mxGeometry>
        </mxCell>
        <mxCell id="RmB8I1O6AhFz0H0aJWPY-55" value="" style="endArrow=diamondThin;endFill=0;endSize=24;html=1;rounded=0;exitX=0.888;exitY=-0.003;exitDx=0;exitDy=0;exitPerimeter=0;entryX=0.306;entryY=1.032;entryDx=0;entryDy=0;entryPerimeter=0;" parent="1" source="RmB8I1O6AhFz0H0aJWPY-1" target="RmB8I1O6AhFz0H0aJWPY-8" edge="1">
          <mxGeometry width="160" relative="1" as="geometry">
            <mxPoint x="510" y="860" as="sourcePoint" />
            <mxPoint x="343" y="920" as="targetPoint" />
          </mxGeometry>
        </mxCell>
        <mxCell id="RmB8I1O6AhFz0H0aJWPY-56" value="&lt;b&gt;&lt;font style=&quot;font-size: 18px;&quot;&gt;*&lt;/font&gt;&lt;/b&gt;" style="text;strokeColor=none;align=center;fillColor=none;html=1;verticalAlign=middle;whiteSpace=wrap;rounded=0;" parent="1" vertex="1">
          <mxGeometry x="370" y="970" width="20" height="20" as="geometry" />
        </mxCell>
        <mxCell id="RmB8I1O6AhFz0H0aJWPY-57" value="" style="endArrow=diamondThin;endFill=0;endSize=24;html=1;rounded=0;entryX=0.349;entryY=1.014;entryDx=0;entryDy=0;entryPerimeter=0;" parent="1" target="RmB8I1O6AhFz0H0aJWPY-18" edge="1">
          <mxGeometry width="160" relative="1" as="geometry">
            <mxPoint x="185" y="990" as="sourcePoint" />
            <mxPoint x="185" y="710" as="targetPoint" />
          </mxGeometry>
        </mxCell>
        <mxCell id="RmB8I1O6AhFz0H0aJWPY-58" value="&lt;b&gt;&lt;font style=&quot;font-size: 18px;&quot;&gt;*&lt;/font&gt;&lt;/b&gt;" style="text;strokeColor=none;align=center;fillColor=none;html=1;verticalAlign=middle;whiteSpace=wrap;rounded=0;" parent="1" vertex="1">
          <mxGeometry x="160" y="960" width="20" height="20" as="geometry" />
        </mxCell>
        <mxCell id="RmB8I1O6AhFz0H0aJWPY-5" value="CardPile" style="swimlane;fontStyle=1;align=center;verticalAlign=top;childLayout=stackLayout;horizontal=1;startSize=30;horizontalStack=0;resizeParent=1;resizeParentMax=0;resizeLast=0;collapsible=1;marginBottom=0;whiteSpace=wrap;html=1;" parent="1" vertex="1">
          <mxGeometry x="310" y="690" width="280" height="200" as="geometry" />
        </mxCell>
        <mxCell id="RmB8I1O6AhFz0H0aJWPY-6" value="- deck: Stack&amp;lt;Card&amp;gt;" style="text;strokeColor=none;fillColor=none;align=left;verticalAlign=top;spacingLeft=4;spacingRight=4;overflow=hidden;rotatable=0;points=[[0,0.5],[1,0.5]];portConstraint=eastwest;whiteSpace=wrap;html=1;" parent="RmB8I1O6AhFz0H0aJWPY-5" vertex="1">
          <mxGeometry y="30" width="280" height="30" as="geometry" />
        </mxCell>
        <mxCell id="RmB8I1O6AhFz0H0aJWPY-7" value="" style="line;strokeWidth=1;fillColor=none;align=left;verticalAlign=middle;spacingTop=-1;spacingLeft=3;spacingRight=3;rotatable=0;labelPosition=right;points=[];portConstraint=eastwest;strokeColor=inherit;" parent="RmB8I1O6AhFz0H0aJWPY-5" vertex="1">
          <mxGeometry y="60" width="280" height="8" as="geometry" />
        </mxCell>
        <mxCell id="RmB8I1O6AhFz0H0aJWPY-8" value="+ CardPile()&lt;br style=&quot;border-color: var(--border-color);&quot;&gt;+ newFullDeck(): void&lt;br style=&quot;border-color: var(--border-color);&quot;&gt;+ newEmptyDeck(): void&lt;br style=&quot;border-color: var(--border-color);&quot;&gt;+ newSingleDeck(card: Card): void&lt;br style=&quot;border-color: var(--border-color);&quot;&gt;+ addCard(): void&lt;br style=&quot;border-color: var(--border-color);&quot;&gt;+ getTop() :&amp;nbsp;Card&lt;br style=&quot;border-color: var(--border-color);&quot;&gt;+ showTop() : Card&lt;br style=&quot;border-color: var(--border-color);&quot;&gt;+ shuffle() : void" style="text;strokeColor=none;fillColor=none;align=left;verticalAlign=top;spacingLeft=4;spacingRight=4;overflow=hidden;rotatable=0;points=[[0,0.5],[1,0.5]];portConstraint=eastwest;whiteSpace=wrap;html=1;" parent="RmB8I1O6AhFz0H0aJWPY-5" vertex="1">
          <mxGeometry y="68" width="280" height="132" as="geometry" />
        </mxCell>
        <mxCell id="RmB8I1O6AhFz0H0aJWPY-61" value="" style="endArrow=diamondThin;endFill=0;endSize=24;html=1;rounded=0;entryX=0.594;entryY=1.013;entryDx=0;entryDy=0;entryPerimeter=0;exitX=0.75;exitY=0;exitDx=0;exitDy=0;" parent="1" source="RmB8I1O6AhFz0H0aJWPY-15" target="RmB8I1O6AhFz0H0aJWPY-22" edge="1">
          <mxGeometry width="160" relative="1" as="geometry">
            <mxPoint x="534" y="660" as="sourcePoint" />
            <mxPoint x="720" y="610" as="targetPoint" />
          </mxGeometry>
        </mxCell>
        <mxCell id="RmB8I1O6AhFz0H0aJWPY-63" value="" style="endArrow=diamondThin;endFill=0;endSize=24;html=1;rounded=0;exitX=0.85;exitY=0.005;exitDx=0;exitDy=0;exitPerimeter=0;" parent="1" source="RmB8I1O6AhFz0H0aJWPY-5" edge="1">
          <mxGeometry width="160" relative="1" as="geometry">
            <mxPoint x="440" y="500" as="sourcePoint" />
            <mxPoint x="790" y="610" as="targetPoint" />
            <Array as="points">
              <mxPoint x="550" y="610" />
            </Array>
          </mxGeometry>
        </mxCell>
        <mxCell id="RmB8I1O6AhFz0H0aJWPY-64" value="&lt;b&gt;&lt;font style=&quot;font-size: 18px;&quot;&gt;*&lt;/font&gt;&lt;/b&gt;" style="text;strokeColor=none;align=center;fillColor=none;html=1;verticalAlign=middle;whiteSpace=wrap;rounded=0;" parent="1" vertex="1">
          <mxGeometry x="530" y="670" width="20" height="20" as="geometry" />
        </mxCell>
        <mxCell id="RmB8I1O6AhFz0H0aJWPY-67" value="" style="endArrow=diamondThin;endFill=0;endSize=24;html=1;rounded=0;" parent="1" edge="1">
          <mxGeometry width="160" relative="1" as="geometry">
            <mxPoint x="400" y="320" as="sourcePoint" />
            <mxPoint x="790" y="540" as="targetPoint" />
            <Array as="points">
              <mxPoint x="560" y="320" />
              <mxPoint x="560" y="540" />
            </Array>
          </mxGeometry>
        </mxCell>
        <mxCell id="RmB8I1O6AhFz0H0aJWPY-68" value="&lt;b&gt;&lt;font style=&quot;font-size: 18px;&quot;&gt;*&lt;/font&gt;&lt;/b&gt;" style="text;strokeColor=none;align=center;fillColor=none;html=1;verticalAlign=middle;whiteSpace=wrap;rounded=0;" parent="1" vertex="1">
          <mxGeometry x="405" y="320" width="20" height="20" as="geometry" />
        </mxCell>
        <object placeholders="1" c4Name="UNO Model" c4Type="ContainerScopeBoundary" c4Application="UNO Game" label="&lt;font style=&quot;font-size: 16px&quot;&gt;&lt;b&gt;&lt;div style=&quot;text-align: left&quot;&gt;%c4Name%&lt;/div&gt;&lt;/b&gt;&lt;/font&gt;&lt;div style=&quot;text-align: left&quot;&gt;[%c4Application%]&lt;/div&gt;" id="_B18mSVBNQEPliArFmkr-1">
          <mxCell style="rounded=1;fontSize=11;whiteSpace=wrap;html=1;dashed=1;arcSize=20;fillColor=none;strokeColor=#666666;fontColor=#333333;labelBackgroundColor=none;align=left;verticalAlign=bottom;labelBorderColor=none;spacingTop=0;spacing=10;dashPattern=8 4;metaEdit=1;rotatable=0;perimeter=rectanglePerimeter;noLabel=0;labelPadding=0;allowArrows=0;connectable=0;expand=0;recursiveResize=0;editable=1;pointerEvents=0;absoluteArcSize=1;points=[[0.25,0,0],[0.5,0,0],[0.75,0,0],[1,0.25,0],[1,0.5,0],[1,0.75,0],[0.75,1,0],[0.5,1,0],[0.25,1,0],[0,0.75,0],[0,0.5,0],[0,0.25,0]];" vertex="1" parent="1">
            <mxGeometry x="20" y="10" width="1230" height="1660" as="geometry" />
          </mxCell>
        </object>
      </root>
    </mxGraphModel>
  </diagram>
</mxfile>
